<svg xmlns="http://www.w3.org/2000/svg" viewBox="0 0 64 64"><rect width="64" height="64" rx="16" fill="#1E3A8A"/><path d="M20 24a12 12 0 0 1 24 0v16a12 12 0 0 1-24 0V24Z" fill="#E0F2FE" opacity=".95"/><circle cx="27" cy="31" r="3" fill="#1E3A8A"/><circle cx="37" cy="31" r="3" fill="#1E3A8A"/><path d="M26 41c4 3 8 3 12 0" stroke="#1E3A8A" stroke-width="3" stroke-linecap="round"/><path d="M15 22v-5a6 6 0 0 1 6-6h5M49 22v-5a6 6 0 0 0-6-6h-5M15 42v5a6 6 0 0 0 6 6h5M49 42v5a6 6 0 0 1-6 6h-5" stroke="#22D3EE" stroke-width="4" stroke-linecap="round"/></svg>